%TF.GenerationSoftware,KiCad,Pcbnew,8.0.6*%
%TF.CreationDate,2025-04-05T03:11:41-05:00*%
%TF.ProjectId,battery protection board,62617474-6572-4792-9070-726f74656374,rev?*%
%TF.SameCoordinates,Original*%
%TF.FileFunction,Paste,Top*%
%TF.FilePolarity,Positive*%
%FSLAX46Y46*%
G04 Gerber Fmt 4.6, Leading zero omitted, Abs format (unit mm)*
G04 Created by KiCad (PCBNEW 8.0.6) date 2025-04-05 03:11:41*
%MOMM*%
%LPD*%
G01*
G04 APERTURE LIST*
G04 Aperture macros list*
%AMRoundRect*
0 Rectangle with rounded corners*
0 $1 Rounding radius*
0 $2 $3 $4 $5 $6 $7 $8 $9 X,Y pos of 4 corners*
0 Add a 4 corners polygon primitive as box body*
4,1,4,$2,$3,$4,$5,$6,$7,$8,$9,$2,$3,0*
0 Add four circle primitives for the rounded corners*
1,1,$1+$1,$2,$3*
1,1,$1+$1,$4,$5*
1,1,$1+$1,$6,$7*
1,1,$1+$1,$8,$9*
0 Add four rect primitives between the rounded corners*
20,1,$1+$1,$2,$3,$4,$5,0*
20,1,$1+$1,$4,$5,$6,$7,0*
20,1,$1+$1,$6,$7,$8,$9,0*
20,1,$1+$1,$8,$9,$2,$3,0*%
G04 Aperture macros list end*
%ADD10RoundRect,0.150000X-0.512500X-0.150000X0.512500X-0.150000X0.512500X0.150000X-0.512500X0.150000X0*%
%ADD11R,2.600000X3.100000*%
%ADD12R,1.550000X0.600000*%
%ADD13RoundRect,0.250000X-0.262500X-0.450000X0.262500X-0.450000X0.262500X0.450000X-0.262500X0.450000X0*%
%ADD14RoundRect,0.250000X0.262500X0.450000X-0.262500X0.450000X-0.262500X-0.450000X0.262500X-0.450000X0*%
%ADD15RoundRect,0.175000X-0.425000X0.175000X-0.425000X-0.175000X0.425000X-0.175000X0.425000X0.175000X0*%
%ADD16RoundRect,0.190000X0.410000X-0.190000X0.410000X0.190000X-0.410000X0.190000X-0.410000X-0.190000X0*%
%ADD17RoundRect,0.200000X0.400000X-0.200000X0.400000X0.200000X-0.400000X0.200000X-0.400000X-0.200000X0*%
%ADD18RoundRect,0.175000X0.425000X-0.175000X0.425000X0.175000X-0.425000X0.175000X-0.425000X-0.175000X0*%
%ADD19RoundRect,0.190000X-0.410000X0.190000X-0.410000X-0.190000X0.410000X-0.190000X0.410000X0.190000X0*%
%ADD20RoundRect,0.200000X-0.400000X0.200000X-0.400000X-0.200000X0.400000X-0.200000X0.400000X0.200000X0*%
%ADD21O,1.700000X1.100000*%
%ADD22RoundRect,0.243750X-0.243750X-0.456250X0.243750X-0.456250X0.243750X0.456250X-0.243750X0.456250X0*%
%ADD23RoundRect,0.250000X-0.250000X-0.475000X0.250000X-0.475000X0.250000X0.475000X-0.250000X0.475000X0*%
%ADD24RoundRect,0.250000X0.250000X0.475000X-0.250000X0.475000X-0.250000X-0.475000X0.250000X-0.475000X0*%
G04 APERTURE END LIST*
D10*
%TO.C,U3*%
X150725000Y-95000000D03*
X150725000Y-95950000D03*
X150725000Y-96900000D03*
X153000000Y-96900000D03*
X153000000Y-95950000D03*
X153000000Y-95000000D03*
%TD*%
%TO.C,U2*%
X155725000Y-95000000D03*
X155725000Y-95950000D03*
X155725000Y-96900000D03*
X158000000Y-96900000D03*
X158000000Y-95950000D03*
X158000000Y-95000000D03*
%TD*%
D11*
%TO.C,U1*%
X145300000Y-96905000D03*
D12*
X142600000Y-95000000D03*
X142600000Y-96270000D03*
X142600000Y-97540000D03*
X142600000Y-98810000D03*
X148000000Y-98810000D03*
X148000000Y-97540000D03*
X148000000Y-96270000D03*
X148000000Y-95000000D03*
%TD*%
D13*
%TO.C,R5*%
X162675000Y-100000000D03*
X164500000Y-100000000D03*
%TD*%
D14*
%TO.C,R4*%
X158912500Y-91000000D03*
X157087500Y-91000000D03*
%TD*%
D13*
%TO.C,R3*%
X151675000Y-100000000D03*
X153500000Y-100000000D03*
%TD*%
%TO.C,R2*%
X142587500Y-92500000D03*
X144412500Y-92500000D03*
%TD*%
%TO.C,R1*%
X146675000Y-92500000D03*
X148500000Y-92500000D03*
%TD*%
D15*
%TO.C,J1*%
X139500000Y-94750000D03*
D16*
X139500000Y-96770000D03*
D17*
X139500000Y-98000000D03*
D18*
X139500000Y-95750000D03*
D19*
X139500000Y-93730000D03*
D20*
X139500000Y-92500000D03*
D21*
X139420000Y-90930000D03*
X135620000Y-90930000D03*
X139420000Y-99570000D03*
X135620000Y-99570000D03*
%TD*%
D22*
%TO.C,D2*%
X151062500Y-92500000D03*
X152937500Y-92500000D03*
%TD*%
%TO.C,D1*%
X156062500Y-100000000D03*
X157937500Y-100000000D03*
%TD*%
D23*
%TO.C,C3*%
X162672500Y-97025000D03*
X164572500Y-97025000D03*
%TD*%
D24*
%TO.C,C2*%
X164572500Y-94015000D03*
X162672500Y-94015000D03*
%TD*%
D23*
%TO.C,C1*%
X162672500Y-91005000D03*
X164572500Y-91005000D03*
%TD*%
M02*
