%TF.GenerationSoftware,KiCad,Pcbnew,8.0.6*%
%TF.CreationDate,2025-04-05T03:11:41-05:00*%
%TF.ProjectId,battery protection board,62617474-6572-4792-9070-726f74656374,rev?*%
%TF.SameCoordinates,Original*%
%TF.FileFunction,Copper,L1,Top*%
%TF.FilePolarity,Positive*%
%FSLAX46Y46*%
G04 Gerber Fmt 4.6, Leading zero omitted, Abs format (unit mm)*
G04 Created by KiCad (PCBNEW 8.0.6) date 2025-04-05 03:11:41*
%MOMM*%
%LPD*%
G01*
G04 APERTURE LIST*
G04 Aperture macros list*
%AMRoundRect*
0 Rectangle with rounded corners*
0 $1 Rounding radius*
0 $2 $3 $4 $5 $6 $7 $8 $9 X,Y pos of 4 corners*
0 Add a 4 corners polygon primitive as box body*
4,1,4,$2,$3,$4,$5,$6,$7,$8,$9,$2,$3,0*
0 Add four circle primitives for the rounded corners*
1,1,$1+$1,$2,$3*
1,1,$1+$1,$4,$5*
1,1,$1+$1,$6,$7*
1,1,$1+$1,$8,$9*
0 Add four rect primitives between the rounded corners*
20,1,$1+$1,$2,$3,$4,$5,0*
20,1,$1+$1,$4,$5,$6,$7,0*
20,1,$1+$1,$6,$7,$8,$9,0*
20,1,$1+$1,$8,$9,$2,$3,0*%
G04 Aperture macros list end*
%TA.AperFunction,ComponentPad*%
%ADD10C,4.400000*%
%TD*%
%TA.AperFunction,SMDPad,CuDef*%
%ADD11RoundRect,0.150000X-0.512500X-0.150000X0.512500X-0.150000X0.512500X0.150000X-0.512500X0.150000X0*%
%TD*%
%TA.AperFunction,SMDPad,CuDef*%
%ADD12R,1.550000X0.600000*%
%TD*%
%TA.AperFunction,SMDPad,CuDef*%
%ADD13R,2.950000X4.900000*%
%TD*%
%TA.AperFunction,SMDPad,CuDef*%
%ADD14RoundRect,0.250000X-0.262500X-0.450000X0.262500X-0.450000X0.262500X0.450000X-0.262500X0.450000X0*%
%TD*%
%TA.AperFunction,SMDPad,CuDef*%
%ADD15RoundRect,0.250000X0.262500X0.450000X-0.262500X0.450000X-0.262500X-0.450000X0.262500X-0.450000X0*%
%TD*%
%TA.AperFunction,SMDPad,CuDef*%
%ADD16RoundRect,0.175000X-0.425000X0.175000X-0.425000X-0.175000X0.425000X-0.175000X0.425000X0.175000X0*%
%TD*%
%TA.AperFunction,SMDPad,CuDef*%
%ADD17RoundRect,0.190000X0.410000X-0.190000X0.410000X0.190000X-0.410000X0.190000X-0.410000X-0.190000X0*%
%TD*%
%TA.AperFunction,SMDPad,CuDef*%
%ADD18RoundRect,0.200000X0.400000X-0.200000X0.400000X0.200000X-0.400000X0.200000X-0.400000X-0.200000X0*%
%TD*%
%TA.AperFunction,SMDPad,CuDef*%
%ADD19RoundRect,0.175000X0.425000X-0.175000X0.425000X0.175000X-0.425000X0.175000X-0.425000X-0.175000X0*%
%TD*%
%TA.AperFunction,SMDPad,CuDef*%
%ADD20RoundRect,0.190000X-0.410000X0.190000X-0.410000X-0.190000X0.410000X-0.190000X0.410000X0.190000X0*%
%TD*%
%TA.AperFunction,SMDPad,CuDef*%
%ADD21RoundRect,0.200000X-0.400000X0.200000X-0.400000X-0.200000X0.400000X-0.200000X0.400000X0.200000X0*%
%TD*%
%TA.AperFunction,ComponentPad*%
%ADD22O,1.700000X1.100000*%
%TD*%
%TA.AperFunction,SMDPad,CuDef*%
%ADD23RoundRect,0.243750X-0.243750X-0.456250X0.243750X-0.456250X0.243750X0.456250X-0.243750X0.456250X0*%
%TD*%
%TA.AperFunction,SMDPad,CuDef*%
%ADD24RoundRect,0.250000X-0.250000X-0.475000X0.250000X-0.475000X0.250000X0.475000X-0.250000X0.475000X0*%
%TD*%
%TA.AperFunction,SMDPad,CuDef*%
%ADD25RoundRect,0.250000X0.250000X0.475000X-0.250000X0.475000X-0.250000X-0.475000X0.250000X-0.475000X0*%
%TD*%
%TA.AperFunction,ViaPad*%
%ADD26C,0.600000*%
%TD*%
%TA.AperFunction,Conductor*%
%ADD27C,0.200000*%
%TD*%
G04 APERTURE END LIST*
D10*
%TO.P,O-,1,1*%
%TO.N,OUT-*%
X173500000Y-98500000D03*
%TD*%
%TO.P,O+,1,1*%
%TO.N,B+*%
X173500000Y-92550000D03*
%TD*%
D11*
%TO.P,U3,1,S1*%
%TO.N,OUT-*%
X150725000Y-95000000D03*
%TO.P,U3,2,D1/2*%
%TO.N,unconnected-(U3-D1{slash}2-Pad2)*%
X150725000Y-95950000D03*
%TO.P,U3,3,S2*%
%TO.N,B-*%
X150725000Y-96900000D03*
%TO.P,U3,4,G2*%
%TO.N,Net-(U2-OD)*%
X153000000Y-96900000D03*
%TO.P,U3,5,D1/2*%
%TO.N,unconnected-(U3-D1{slash}2-Pad5)*%
X153000000Y-95950000D03*
%TO.P,U3,6,G1*%
%TO.N,Net-(U2-OC)*%
X153000000Y-95000000D03*
%TD*%
%TO.P,U2,1,OD*%
%TO.N,Net-(U2-OD)*%
X155725000Y-95000000D03*
%TO.P,U2,2,CS*%
%TO.N,Net-(U2-CS)*%
X155725000Y-95950000D03*
%TO.P,U2,3,OC*%
%TO.N,Net-(U2-OC)*%
X155725000Y-96900000D03*
%TO.P,U2,4,TD*%
%TO.N,unconnected-(U2-TD-Pad4)*%
X158000000Y-96900000D03*
%TO.P,U2,5,VCC*%
%TO.N,Net-(U2-VCC)*%
X158000000Y-95950000D03*
%TO.P,U2,6,GND*%
%TO.N,B-*%
X158000000Y-95000000D03*
%TD*%
D12*
%TO.P,U1,1,TEMP*%
%TO.N,OUT-*%
X142600000Y-95000000D03*
%TO.P,U1,2,PROG*%
%TO.N,Net-(U1-PROG)*%
X142600000Y-96270000D03*
%TO.P,U1,3,GND*%
%TO.N,OUT-*%
X142600000Y-97540000D03*
%TO.P,U1,4,VCC*%
%TO.N,Net-(D1-A)*%
X142600000Y-98810000D03*
%TO.P,U1,5,BAT*%
%TO.N,B+*%
X148000000Y-98810000D03*
%TO.P,U1,6,STDBY*%
%TO.N,Net-(U1-STDBY)*%
X148000000Y-97540000D03*
%TO.P,U1,7,CHRG*%
%TO.N,Net-(U1-CHRG)*%
X148000000Y-96270000D03*
%TO.P,U1,8,CE*%
%TO.N,Net-(D1-A)*%
X148000000Y-95000000D03*
D13*
%TO.P,U1,9,EP*%
%TO.N,OUT-*%
X145300000Y-96905000D03*
%TD*%
D14*
%TO.P,R5,1*%
%TO.N,B+*%
X162675000Y-100000000D03*
%TO.P,R5,2*%
%TO.N,Net-(U2-VCC)*%
X164500000Y-100000000D03*
%TD*%
D15*
%TO.P,R4,1*%
%TO.N,Net-(U2-CS)*%
X158912500Y-91000000D03*
%TO.P,R4,2*%
%TO.N,OUT-*%
X157087500Y-91000000D03*
%TD*%
D14*
%TO.P,R3,1*%
%TO.N,Net-(U1-STDBY)*%
X151675000Y-100000000D03*
%TO.P,R3,2*%
%TO.N,Net-(D1-K)*%
X153500000Y-100000000D03*
%TD*%
%TO.P,R2,1*%
%TO.N,Net-(U1-PROG)*%
X142587500Y-92500000D03*
%TO.P,R2,2*%
%TO.N,OUT-*%
X144412500Y-92500000D03*
%TD*%
%TO.P,R1,1*%
%TO.N,Net-(U1-CHRG)*%
X146675000Y-92500000D03*
%TO.P,R1,2*%
%TO.N,Net-(D2-K)*%
X148500000Y-92500000D03*
%TD*%
D16*
%TO.P,J1,A5,CC1*%
%TO.N,unconnected-(J1-CC1-PadA5)*%
X139500000Y-94750000D03*
D17*
%TO.P,J1,A9,VBUS*%
%TO.N,Net-(D1-A)*%
X139500000Y-96770000D03*
D18*
%TO.P,J1,A12,GND*%
%TO.N,OUT-*%
X139500000Y-98000000D03*
D19*
%TO.P,J1,B5,CC2*%
%TO.N,unconnected-(J1-CC2-PadB5)*%
X139500000Y-95750000D03*
D20*
%TO.P,J1,B9,VBUS*%
%TO.N,Net-(D1-A)*%
X139500000Y-93730000D03*
D21*
%TO.P,J1,B12,GND*%
%TO.N,OUT-*%
X139500000Y-92500000D03*
D22*
%TO.P,J1,S1,SHIELD*%
%TO.N,unconnected-(J1-SHIELD-PadS1)*%
X139420000Y-90930000D03*
X135620000Y-90930000D03*
X139420000Y-99570000D03*
X135620000Y-99570000D03*
%TD*%
D10*
%TO.P,B-,1,1*%
%TO.N,B-*%
X168000000Y-92500000D03*
%TD*%
%TO.P,B+,1,1*%
%TO.N,B+*%
X168000000Y-98500000D03*
%TD*%
D23*
%TO.P,D2,1,K*%
%TO.N,Net-(D2-K)*%
X151062500Y-92500000D03*
%TO.P,D2,2,A*%
%TO.N,Net-(D1-A)*%
X152937500Y-92500000D03*
%TD*%
%TO.P,D1,1,K*%
%TO.N,Net-(D1-K)*%
X156062500Y-100000000D03*
%TO.P,D1,2,A*%
%TO.N,Net-(D1-A)*%
X157937500Y-100000000D03*
%TD*%
D24*
%TO.P,C3,1*%
%TO.N,B+*%
X162672500Y-97025000D03*
%TO.P,C3,2*%
%TO.N,OUT-*%
X164572500Y-97025000D03*
%TD*%
D25*
%TO.P,C2,1*%
%TO.N,Net-(U2-VCC)*%
X164572500Y-94015000D03*
%TO.P,C2,2*%
%TO.N,B-*%
X162672500Y-94015000D03*
%TD*%
D24*
%TO.P,C1,1*%
%TO.N,Net-(D1-A)*%
X162672500Y-91005000D03*
%TO.P,C1,2*%
%TO.N,OUT-*%
X164572500Y-91005000D03*
%TD*%
D26*
%TO.N,OUT-*%
X164500000Y-91000000D03*
X157000000Y-91000000D03*
%TO.N,B+*%
X162672500Y-97025000D03*
%TO.N,B-*%
X163500000Y-92500000D03*
%TO.N,Net-(U1-STDBY)*%
X148000000Y-97540000D03*
X150500000Y-100000000D03*
%TO.N,B+*%
X160500000Y-98000000D03*
X157000000Y-98500000D03*
%TO.N,Net-(D1-A)*%
X149500000Y-99500000D03*
X148000000Y-95000000D03*
X154500000Y-92500000D03*
X160000000Y-96550000D03*
X160500000Y-94000000D03*
%TD*%
D27*
%TO.N,OUT-*%
X171000000Y-96000000D02*
X173500000Y-98500000D01*
X165597500Y-96000000D02*
X171000000Y-96000000D01*
X164572500Y-97025000D02*
X165597500Y-96000000D01*
%TO.N,B-*%
X162672500Y-93327500D02*
X163500000Y-92500000D01*
X162672500Y-94015000D02*
X162672500Y-93327500D01*
%TO.N,OUT-*%
X143412500Y-91500000D02*
X144412500Y-92500000D01*
X140500000Y-91500000D02*
X143412500Y-91500000D01*
X139500000Y-92500000D02*
X140500000Y-91500000D01*
%TO.N,Net-(D1-A)*%
X140150000Y-96770000D02*
X139500000Y-96770000D01*
X142190000Y-98810000D02*
X140150000Y-96770000D01*
X142600000Y-98810000D02*
X142190000Y-98810000D01*
X140400000Y-94030000D02*
X140400000Y-96470000D01*
X140100000Y-96770000D02*
X139500000Y-96770000D01*
X140400000Y-96470000D02*
X140100000Y-96770000D01*
X139500000Y-93730000D02*
X140100000Y-93730000D01*
X140100000Y-93730000D02*
X140400000Y-94030000D01*
%TO.N,OUT-*%
X138900000Y-98000000D02*
X139500000Y-98000000D01*
X138900000Y-92500000D02*
X138500000Y-92900000D01*
X138500000Y-92900000D02*
X138500000Y-97600000D01*
X138500000Y-97600000D02*
X138900000Y-98000000D01*
X139500000Y-92500000D02*
X138900000Y-92500000D01*
X142600000Y-94312500D02*
X144412500Y-92500000D01*
X142600000Y-95000000D02*
X142600000Y-94312500D01*
%TO.N,Net-(U1-PROG)*%
X141525000Y-95670000D02*
X142125000Y-96270000D01*
X142587500Y-92500000D02*
X141525000Y-93562500D01*
X141525000Y-93562500D02*
X141525000Y-95670000D01*
X142125000Y-96270000D02*
X142600000Y-96270000D01*
%TO.N,OUT-*%
X145100000Y-92500000D02*
X146600000Y-91000000D01*
X144412500Y-92500000D02*
X145100000Y-92500000D01*
%TO.N,Net-(U1-STDBY)*%
X151675000Y-100000000D02*
X150500000Y-100000000D01*
%TO.N,B+*%
X161697500Y-98000000D02*
X162672500Y-97025000D01*
X160500000Y-98000000D02*
X161697500Y-98000000D01*
X156690000Y-98810000D02*
X157000000Y-98500000D01*
X148000000Y-98810000D02*
X156690000Y-98810000D01*
%TO.N,Net-(D1-A)*%
X143445000Y-99655000D02*
X149345000Y-99655000D01*
X149345000Y-99655000D02*
X149500000Y-99500000D01*
X142600000Y-98810000D02*
X143445000Y-99655000D01*
%TO.N,Net-(U1-CHRG)*%
X147675000Y-93500000D02*
X146675000Y-92500000D01*
X149500000Y-95500000D02*
X149500000Y-93500000D01*
X148730000Y-96270000D02*
X149500000Y-95500000D01*
X148000000Y-96270000D02*
X148730000Y-96270000D01*
X149500000Y-93500000D02*
X147675000Y-93500000D01*
%TO.N,OUT-*%
X142960000Y-97540000D02*
X143595000Y-96905000D01*
X142600000Y-97540000D02*
X142960000Y-97540000D01*
X143595000Y-96905000D02*
X145300000Y-96905000D01*
X143395000Y-95000000D02*
X145300000Y-96905000D01*
X142600000Y-95000000D02*
X143395000Y-95000000D01*
%TO.N,Net-(D1-A)*%
X152937500Y-92500000D02*
X154500000Y-92500000D01*
%TO.N,Net-(D2-K)*%
X151062500Y-92500000D02*
X148500000Y-92500000D01*
%TO.N,OUT-*%
X157000000Y-91000000D02*
X157087500Y-91000000D01*
X152296948Y-94400000D02*
X153600000Y-94400000D01*
X152037500Y-94659448D02*
X152296948Y-94400000D01*
X153600000Y-94400000D02*
X157000000Y-91000000D01*
X150725000Y-95000000D02*
X151065552Y-94659448D01*
X151065552Y-94659448D02*
X152037500Y-94659448D01*
%TO.N,Net-(D1-K)*%
X153500000Y-100000000D02*
X156062500Y-100000000D01*
%TO.N,Net-(D1-A)*%
X157937500Y-98612500D02*
X160000000Y-96550000D01*
X157937500Y-100000000D02*
X157937500Y-98612500D01*
%TO.N,Net-(U2-VCC)*%
X163772500Y-96272500D02*
X163043750Y-95543750D01*
X163772500Y-99272500D02*
X163772500Y-96272500D01*
X163043750Y-95543750D02*
X164572500Y-94015000D01*
X162637500Y-95950000D02*
X163043750Y-95543750D01*
X164500000Y-100000000D02*
X163772500Y-99272500D01*
%TO.N,B+*%
X162672500Y-99997500D02*
X162675000Y-100000000D01*
X162672500Y-97025000D02*
X162672500Y-99997500D01*
%TO.N,Net-(U2-CS)*%
X157000000Y-92912500D02*
X158912500Y-91000000D01*
X157000000Y-95028052D02*
X157000000Y-92912500D01*
X156078052Y-95950000D02*
X157000000Y-95028052D01*
X155725000Y-95950000D02*
X156078052Y-95950000D01*
%TO.N,B-*%
X157037500Y-95609448D02*
X157037500Y-96890552D01*
X157037500Y-96890552D02*
X156028052Y-97900000D01*
X151725000Y-97900000D02*
X150725000Y-96900000D01*
X157646948Y-95000000D02*
X157037500Y-95609448D01*
X156028052Y-97900000D02*
X151725000Y-97900000D01*
X158000000Y-95000000D02*
X157646948Y-95000000D01*
%TO.N,Net-(U2-OD)*%
X155371948Y-95000000D02*
X155725000Y-95000000D01*
X153471948Y-96900000D02*
X155371948Y-95000000D01*
X153000000Y-96900000D02*
X153471948Y-96900000D01*
%TO.N,Net-(U2-OC)*%
X152296948Y-97500000D02*
X155125000Y-97500000D01*
X152000000Y-95337501D02*
X152000000Y-97203052D01*
X152337501Y-95000000D02*
X152000000Y-95337501D01*
X152000000Y-97203052D02*
X152296948Y-97500000D01*
X153000000Y-95000000D02*
X152337501Y-95000000D01*
X155125000Y-97500000D02*
X155725000Y-96900000D01*
%TO.N,Net-(D1-A)*%
X162672500Y-91827500D02*
X160500000Y-94000000D01*
X162672500Y-91005000D02*
X162672500Y-91827500D01*
%TO.N,OUT-*%
X165372500Y-91805000D02*
X164572500Y-91005000D01*
X164572500Y-97025000D02*
X165372500Y-96225000D01*
X165372500Y-96225000D02*
X165372500Y-91805000D01*
%TO.N,Net-(U2-VCC)*%
X158000000Y-95950000D02*
X162637500Y-95950000D01*
%TO.N,B-*%
X162672500Y-94015000D02*
X161687500Y-95000000D01*
X161687500Y-95000000D02*
X158000000Y-95000000D01*
%TO.N,OUT-*%
X146600000Y-91000000D02*
X157087500Y-91000000D01*
%TD*%
M02*
