%TF.GenerationSoftware,KiCad,Pcbnew,8.0.6*%
%TF.CreationDate,2025-04-05T03:11:44-05:00*%
%TF.ProjectId,battery protection board,62617474-6572-4792-9070-726f74656374,rev?*%
%TF.SameCoordinates,Original*%
%TF.FileFunction,Drillmap*%
%TF.FilePolarity,Positive*%
%FSLAX45Y45*%
G04 Gerber Fmt 4.5, Leading zero omitted, Abs format (unit mm)*
G04 Created by KiCad (PCBNEW 8.0.6) date 2025-04-05 03:11:44*
%MOMM*%
%LPD*%
G01*
G04 APERTURE LIST*
%ADD10C,0.050000*%
%ADD11C,0.200000*%
G04 APERTURE END LIST*
D10*
X13300000Y-8950000D02*
X17750000Y-8950000D01*
X17750000Y-10150000D01*
X13300000Y-10150000D01*
X13300000Y-8950000D01*
D11*
X13558277Y-10463984D02*
X13558277Y-10263984D01*
X13558277Y-10263984D02*
X13605896Y-10263984D01*
X13605896Y-10263984D02*
X13634467Y-10273508D01*
X13634467Y-10273508D02*
X13653515Y-10292555D01*
X13653515Y-10292555D02*
X13663039Y-10311603D01*
X13663039Y-10311603D02*
X13672562Y-10349698D01*
X13672562Y-10349698D02*
X13672562Y-10378270D01*
X13672562Y-10378270D02*
X13663039Y-10416365D01*
X13663039Y-10416365D02*
X13653515Y-10435412D01*
X13653515Y-10435412D02*
X13634467Y-10454460D01*
X13634467Y-10454460D02*
X13605896Y-10463984D01*
X13605896Y-10463984D02*
X13558277Y-10463984D01*
X13758277Y-10463984D02*
X13758277Y-10330650D01*
X13758277Y-10368746D02*
X13767801Y-10349698D01*
X13767801Y-10349698D02*
X13777324Y-10340174D01*
X13777324Y-10340174D02*
X13796372Y-10330650D01*
X13796372Y-10330650D02*
X13815420Y-10330650D01*
X13882086Y-10463984D02*
X13882086Y-10330650D01*
X13882086Y-10263984D02*
X13872562Y-10273508D01*
X13872562Y-10273508D02*
X13882086Y-10283031D01*
X13882086Y-10283031D02*
X13891610Y-10273508D01*
X13891610Y-10273508D02*
X13882086Y-10263984D01*
X13882086Y-10263984D02*
X13882086Y-10283031D01*
X14005896Y-10463984D02*
X13986848Y-10454460D01*
X13986848Y-10454460D02*
X13977324Y-10435412D01*
X13977324Y-10435412D02*
X13977324Y-10263984D01*
X14110658Y-10463984D02*
X14091610Y-10454460D01*
X14091610Y-10454460D02*
X14082086Y-10435412D01*
X14082086Y-10435412D02*
X14082086Y-10263984D01*
X14339229Y-10463984D02*
X14339229Y-10263984D01*
X14339229Y-10263984D02*
X14405896Y-10406841D01*
X14405896Y-10406841D02*
X14472562Y-10263984D01*
X14472562Y-10263984D02*
X14472562Y-10463984D01*
X14653515Y-10463984D02*
X14653515Y-10359222D01*
X14653515Y-10359222D02*
X14643991Y-10340174D01*
X14643991Y-10340174D02*
X14624943Y-10330650D01*
X14624943Y-10330650D02*
X14586848Y-10330650D01*
X14586848Y-10330650D02*
X14567801Y-10340174D01*
X14653515Y-10454460D02*
X14634467Y-10463984D01*
X14634467Y-10463984D02*
X14586848Y-10463984D01*
X14586848Y-10463984D02*
X14567801Y-10454460D01*
X14567801Y-10454460D02*
X14558277Y-10435412D01*
X14558277Y-10435412D02*
X14558277Y-10416365D01*
X14558277Y-10416365D02*
X14567801Y-10397317D01*
X14567801Y-10397317D02*
X14586848Y-10387793D01*
X14586848Y-10387793D02*
X14634467Y-10387793D01*
X14634467Y-10387793D02*
X14653515Y-10378270D01*
X14748753Y-10330650D02*
X14748753Y-10530650D01*
X14748753Y-10340174D02*
X14767801Y-10330650D01*
X14767801Y-10330650D02*
X14805896Y-10330650D01*
X14805896Y-10330650D02*
X14824943Y-10340174D01*
X14824943Y-10340174D02*
X14834467Y-10349698D01*
X14834467Y-10349698D02*
X14843991Y-10368746D01*
X14843991Y-10368746D02*
X14843991Y-10425889D01*
X14843991Y-10425889D02*
X14834467Y-10444936D01*
X14834467Y-10444936D02*
X14824943Y-10454460D01*
X14824943Y-10454460D02*
X14805896Y-10463984D01*
X14805896Y-10463984D02*
X14767801Y-10463984D01*
X14767801Y-10463984D02*
X14748753Y-10454460D01*
X14929705Y-10444936D02*
X14939229Y-10454460D01*
X14939229Y-10454460D02*
X14929705Y-10463984D01*
X14929705Y-10463984D02*
X14920182Y-10454460D01*
X14920182Y-10454460D02*
X14929705Y-10444936D01*
X14929705Y-10444936D02*
X14929705Y-10463984D01*
X14929705Y-10340174D02*
X14939229Y-10349698D01*
X14939229Y-10349698D02*
X14929705Y-10359222D01*
X14929705Y-10359222D02*
X14920182Y-10349698D01*
X14920182Y-10349698D02*
X14929705Y-10340174D01*
X14929705Y-10340174D02*
X14929705Y-10359222D01*
M02*
