M48
; DRILL file {KiCad 8.0.6} date 2025-04-05T03:11:43-0500
; FORMAT={-:-/ absolute / inch / decimal}
; #@! TF.CreationDate,2025-04-05T03:11:43-05:00
; #@! TF.GenerationSoftware,Kicad,Pcbnew,8.0.6
; #@! TF.FileFunction,Plated,1,2,PTH
FMAT,2
INCH
; #@! TA.AperFunction,Plated,PTH,ViaDrill
T1C0.0118
; #@! TA.AperFunction,Plated,PTH,ComponentDrill
T2C0.0236
; #@! TA.AperFunction,Plated,PTH,ComponentDrill
T3C0.0866
%
G90
G05
T1
X5.8268Y-3.7402
X5.8268Y-3.8402
X5.8858Y-3.9173
X5.9252Y-3.937
X6.0827Y-3.6417
X6.1811Y-3.5827
X6.1811Y-3.878
X6.2992Y-3.8012
X6.3189Y-3.7008
X6.3189Y-3.8583
X6.4044Y-3.8199
X6.437Y-3.6417
X6.4764Y-3.5827
T3
X6.6142Y-3.6417
X6.6142Y-3.878
X6.8307Y-3.6437
X6.8307Y-3.878
T2
G00X5.3512Y-3.5799
M15
G01X5.3276Y-3.5799
M16
G05
G00X5.3512Y-3.9201
M15
G01X5.3276Y-3.9201
M16
G05
G00X5.5008Y-3.5799
M15
G01X5.4772Y-3.5799
M16
G05
G00X5.5008Y-3.9201
M15
G01X5.4772Y-3.9201
M16
G05
M30
